<svg width="80" height="80" viewBox="0 0 80 80" fill="none" xmlns="http://www.w3.org/2000/svg">
<path d="M57.0848 30.6489L51.1678 24.5852C49.9927 23.3794 48.3983 22.7012 46.7353 22.6997H33.4797C31.8167 22.7012 30.2223 23.3794 29.0472 24.5852L23.1302 30.6489C21.9535 31.8532 21.2917 33.4871 21.2903 35.1913V54.8393C21.2903 58.3893 24.0985 61.2672 27.5627 61.2672H52.6523C56.1165 61.2672 58.9247 58.3893 58.9247 54.8393V35.1913C58.9232 33.4871 58.2614 31.8532 57.0848 30.6489ZM31.9952 27.6064C32.3959 27.2148 32.9261 26.9929 33.4797 26.985H46.7353C47.2889 26.9929 47.8191 27.2148 48.2198 27.6064L51.7951 31.2703H28.4199L31.9952 27.6064ZM52.6523 56.9819H27.5627C26.408 56.9819 25.4719 56.0226 25.4719 54.8393V35.5555H54.7431V54.8393C54.7431 56.0226 53.807 56.9819 52.6523 56.9819Z" fill="#122F32"/>
<path d="M46.5053 39.8899C45.3473 39.8899 44.4085 40.8569 44.4085 42.0497C44.4085 44.4353 42.531 46.3692 40.215 46.3692C37.899 46.3692 36.0214 44.4353 36.0214 42.0497C36.0214 40.8569 35.0827 39.8899 33.9247 39.8899C32.7666 39.8899 31.8279 40.8569 31.8279 42.0497C31.8279 46.8209 35.5829 50.6888 40.215 50.6888C44.8471 50.6888 48.6021 46.8209 48.6021 42.0497C48.6021 40.8569 47.6633 39.8899 46.5053 39.8899Z" fill="#122F32"/>
<path fill-rule="evenodd" clip-rule="evenodd" d="M40.959 0.0111521C41.4639 0.0810329 41.9015 0.409579 42.1242 0.886009C42.3469 1.36244 42.325 1.92326 42.0659 2.37937C40.8189 4.66776 41.1687 5.79686 41.718 7.47761C42.2674 9.15836 43.2673 11.3657 42.5404 14.2205C42.5405 14.2314 42.5405 14.2423 42.5404 14.2533C42.1623 15.6575 41.9113 16.3498 41.718 16.786C41.6214 17.0041 41.5409 17.1209 41.5283 17.1478C41.4499 17.7426 41.0539 18.2398 40.5065 18.4305C39.9591 18.6213 39.355 18.4727 38.9478 18.0471C38.5406 17.6215 38.4007 16.9925 38.5869 16.4242C38.6421 16.1794 38.7324 15.9272 38.8083 15.7663C38.8842 15.6054 38.9173 15.5483 38.9664 15.4374C39.0633 15.2188 39.254 14.7061 39.599 13.431C39.602 13.4189 39.596 13.4101 39.599 13.3982C40.0394 11.6208 39.4668 10.4154 38.8399 8.49726C38.2088 6.5661 37.78 3.88128 39.4409 0.83345C39.7359 0.260544 40.3384 -0.0657989 40.959 0.0111521Z" fill="#122F32"/>
<path fill-rule="evenodd" clip-rule="evenodd" d="M33.4636 0.0150788C33.9686 0.0846335 34.4061 0.411646 34.6288 0.885853C34.8515 1.36006 34.8297 1.91826 34.5706 2.37224C33.3236 4.64996 33.6418 5.77379 34.1911 7.4467C34.7404 9.11961 35.7403 11.3167 35.0134 14.1581C35.0135 14.169 35.0135 14.1799 35.0134 14.1908C34.6353 15.5885 34.3843 16.2775 34.1911 16.7116C34.0944 16.9287 34.014 17.045 34.0013 17.0717C34.0122 17.0623 34.0388 17.0461 34.0329 17.0717C33.9086 17.6215 33.5104 18.0609 32.9884 18.2243C32.4663 18.3878 31.8996 18.2505 31.5019 17.8642C31.1041 17.4779 30.9356 16.9012 31.0599 16.3515C31.1151 16.1079 31.2054 15.8569 31.2813 15.6967C31.3572 15.5366 31.3903 15.4797 31.4395 15.3693C31.5363 15.1518 31.7585 14.6418 32.1036 13.3723C32.1067 13.3603 32.1006 13.3515 32.1036 13.3396C32.544 11.5706 31.9398 10.3707 31.313 8.46159C30.6818 6.53944 30.253 3.86715 31.9139 0.833539C32.2133 0.250998 32.8323 -0.075926 33.4636 0.0150788Z" fill="#122F32"/>
<path fill-rule="evenodd" clip-rule="evenodd" d="M47.4206 2.21495C47.9244 2.28447 48.3609 2.61133 48.5831 3.0853C48.8053 3.55927 48.7834 4.1172 48.525 4.57096C47.2813 6.84772 47.5987 7.97101 48.1464 9.64293C48.6941 11.3149 49.7213 13.5113 48.9983 16.351C48.9879 16.3621 48.9774 16.373 48.9668 16.3837C48.5879 17.7803 48.369 18.4392 48.178 18.8706C47.9869 19.302 48.012 19.1582 47.9886 19.2633C47.8057 20.1126 46.9934 20.6474 46.1743 20.4576C45.3553 20.2679 44.8397 19.4255 45.0226 18.5761C45.1302 18.0917 45.3024 17.7849 45.4013 17.5617C45.4987 17.3417 45.7179 16.8349 46.0639 15.5656C46.0669 15.5536 46.0609 15.5448 46.0639 15.533C46.502 13.7645 45.9002 12.5657 45.2751 10.6573C44.6457 8.73596 44.2499 6.06498 45.9061 3.03301C46.2005 2.46306 46.8016 2.1384 47.4207 2.21495H47.4206Z" fill="#122F32"/>
<path d="M0.171997 65.7103C0.171997 65.5222 0.217875 65.3635 0.309631 65.2342C0.401388 65.1049 0.559093 65.0403 0.78275 65.0403H2.89028C2.94762 65.0403 3.00784 65.0565 3.07092 65.0888C3.134 65.1211 3.19279 65.1666 3.24727 65.2254C3.30175 65.2842 3.34762 65.3547 3.3849 65.437C3.42218 65.5193 3.44081 65.6104 3.44081 65.7103V78.8805C3.44081 79.1039 3.37917 79.2728 3.25587 79.3874C3.13257 79.502 2.97343 79.5593 2.77845 79.5593H0.78275C0.559093 79.5593 0.401388 79.502 0.309631 79.3874C0.217875 79.2728 0.171997 79.1039 0.171997 78.8805V65.7103ZM16.7483 78.907C16.7483 79.0069 16.7311 79.1024 16.6967 79.1935C16.6623 79.2846 16.605 79.3566 16.5247 79.4095C16.4616 79.4741 16.3871 79.5152 16.301 79.5329C16.215 79.5505 16.1405 79.5593 16.0774 79.5593H14.3827C14.2623 79.5593 14.1648 79.5432 14.0903 79.5108C14.0157 79.4785 13.9555 79.433 13.9096 79.3742C13.8638 79.3154 13.825 79.2434 13.7935 79.1582C13.762 79.073 13.729 78.9804 13.6946 78.8805L13.5827 78.4838C13.4279 78.6425 13.2516 78.7983 13.0537 78.9511C12.8559 79.1039 12.6379 79.2405 12.4 79.361C12.162 79.4815 11.9068 79.5784 11.6344 79.6519C11.362 79.7254 11.0795 79.7621 10.7871 79.7621C10.2652 79.7621 9.76483 79.6945 9.28598 79.5593C8.80712 79.4242 8.35981 79.2317 7.94404 78.9819C7.52827 78.7321 7.15121 78.4324 6.81286 78.0827C6.4745 77.7331 6.18347 77.3437 5.93974 76.9147C5.69601 76.4857 5.5082 76.0229 5.3763 75.5263C5.2444 75.0297 5.17845 74.511 5.17845 73.9703C5.17845 73.1534 5.32468 72.3938 5.61716 71.6915C5.90963 70.9892 6.3082 70.378 6.81286 69.8579C7.31752 69.3378 7.91106 68.9294 8.5935 68.6326C9.27594 68.3358 10.0071 68.1874 10.7871 68.1874C11.1426 68.1874 11.4738 68.2285 11.7806 68.3108C12.0874 68.3931 12.3684 68.5048 12.6236 68.6458C12.8788 68.7869 13.1096 68.9558 13.3161 69.1527C13.5225 69.3496 13.7032 69.5626 13.858 69.7918L14.1075 68.9896C14.1648 68.8427 14.2121 68.7237 14.2494 68.6326C14.2867 68.5415 14.3268 68.4739 14.3698 68.4298C14.4129 68.3858 14.4659 68.3564 14.529 68.3417C14.5921 68.327 14.681 68.3196 14.7957 68.3196H16.0774C16.1405 68.3196 16.215 68.3285 16.301 68.3461C16.3871 68.3637 16.4616 68.4049 16.5247 68.4695C16.605 68.5341 16.6623 68.6076 16.6967 68.6899C16.7311 68.7722 16.7483 68.8662 16.7483 68.972V78.907ZM8.27522 73.9703C8.27522 74.3582 8.334 74.7211 8.45157 75.059C8.56913 75.397 8.73687 75.6893 8.95479 75.9362C9.17271 76.183 9.43508 76.3784 9.74189 76.5224C10.0487 76.6664 10.3885 76.7384 10.7612 76.7384C11.1455 76.7384 11.5025 76.6664 11.8322 76.5224C12.162 76.3784 12.4487 76.183 12.6924 75.9362C12.9362 75.6893 13.1268 75.397 13.2645 75.059C13.4021 74.7211 13.4709 74.3582 13.4709 73.9703C13.4709 73.5942 13.4021 73.2357 13.2645 72.8949C13.1268 72.554 12.9362 72.2543 12.6924 71.9957C12.4487 71.7371 12.162 71.5329 11.8322 71.383C11.5025 71.2331 11.1455 71.1582 10.7612 71.1582C10.3885 71.1582 10.0487 71.2331 9.74189 71.383C9.43508 71.5329 9.17271 71.7371 8.95479 71.9957C8.73687 72.2543 8.56913 72.554 8.45157 72.8949C8.334 73.2357 8.27522 73.5942 8.27522 73.9703ZM20.4473 76.0772C20.6021 76.2359 20.7698 76.3696 20.9505 76.4783C21.1311 76.5871 21.3046 76.6752 21.4709 76.7428C21.6372 76.8104 21.7835 76.8589 21.9096 76.8882C22.0358 76.9176 22.1218 76.9323 22.1677 76.9323C22.2767 76.9323 22.4157 76.9279 22.5849 76.9191C22.7541 76.9103 22.9161 76.8838 23.0709 76.8398C23.2258 76.7957 23.3591 76.7237 23.4709 76.6238C23.5827 76.5239 23.6387 76.3828 23.6387 76.2006C23.6387 76.0361 23.6071 75.9053 23.544 75.8084C23.481 75.7114 23.3892 75.6291 23.2688 75.5615C23.1483 75.4939 23.0007 75.4337 22.8258 75.3808C22.6508 75.3279 22.4544 75.2662 22.2365 75.1957C21.5483 75.0076 20.9806 74.7814 20.5333 74.5169C20.086 74.2524 19.7319 73.9571 19.4709 73.6309C19.21 73.3048 19.0279 72.9536 18.9247 72.5775C18.8215 72.2014 18.7698 71.8047 18.7698 71.3874C18.7698 70.8996 18.8645 70.4559 19.0537 70.0563C19.243 69.6566 19.5125 69.3143 19.8623 69.0293C20.2121 68.7442 20.6308 68.5239 21.1182 68.3681C21.6057 68.2124 22.1476 68.1345 22.744 68.1345C23.1053 68.1345 23.4437 68.1654 23.7591 68.2271C24.0745 68.2888 24.3756 68.3858 24.6623 68.518C24.9491 68.6502 25.2286 68.8206 25.501 69.0293C25.7734 69.2379 26.0444 69.4862 26.3139 69.7742C26.4114 69.8917 26.4616 70.0019 26.4645 70.1048C26.4673 70.2076 26.4028 70.3178 26.2709 70.4353C26.0473 70.6234 25.8336 70.8085 25.6301 70.9907C25.4265 71.1729 25.2157 71.3757 24.9978 71.599C24.929 71.6578 24.8602 71.6945 24.7913 71.7092C24.7225 71.7239 24.6566 71.7224 24.5935 71.7048C24.5304 71.6871 24.4702 71.6578 24.4129 71.6166C24.3555 71.5755 24.3039 71.5255 24.258 71.4668C24.0573 71.2375 23.8279 71.0833 23.5698 71.0039C23.3118 70.9246 23.0709 70.8849 22.8473 70.8849C22.5663 70.8849 22.3426 70.9349 22.1763 71.0348C22.01 71.1347 21.9326 71.2875 21.944 71.4932C21.9555 71.646 22.0114 71.765 22.1118 71.8502C22.2121 71.9354 22.3354 72.0045 22.4817 72.0574C22.6279 72.1103 22.7827 72.1529 22.9462 72.1852C23.1096 72.2175 23.2602 72.2543 23.3978 72.2954C23.9139 72.4658 24.387 72.651 24.8172 72.8508C25.2473 73.0506 25.62 73.296 25.9354 73.5869C26.2508 73.8778 26.496 74.226 26.6709 74.6315C26.8458 75.037 26.9333 75.5307 26.9333 76.1125C26.9333 76.6943 26.82 77.2144 26.5935 77.6728C26.367 78.1312 26.0559 78.5162 25.6602 78.8276C25.2645 79.1391 24.7957 79.3771 24.2537 79.5417C23.7118 79.7063 23.1283 79.7885 22.5032 79.7885C22.1476 79.7885 21.7863 79.7562 21.4193 79.6916C21.0523 79.6269 20.6967 79.5226 20.3526 79.3786C20.0086 79.2346 19.6817 79.0495 19.372 78.8232C19.0623 78.597 18.7871 78.3222 18.5462 77.999C18.4831 77.9167 18.4358 77.83 18.4043 77.7389C18.3727 77.6478 18.3584 77.5582 18.3612 77.4701C18.3641 77.3819 18.3813 77.3011 18.4129 77.2276C18.4444 77.1542 18.4946 77.091 18.5634 77.0381L19.6731 75.9009C19.8107 75.7834 19.9326 75.7422 20.0387 75.7775C20.1448 75.8128 20.281 75.9127 20.4473 76.0772ZM29.4365 66.6183C29.4365 66.4361 29.4953 66.2994 29.6129 66.2083C29.7304 66.1173 29.8982 66.0306 30.1161 65.9483L32.0688 65.2519C32.0974 65.246 32.1247 65.2431 32.1505 65.2431H32.2236C32.4358 65.2431 32.5777 65.3062 32.6494 65.4326C32.7211 65.5589 32.7569 65.725 32.7569 65.9307L32.7483 68.3549H33.9268C34.1103 68.3549 34.2594 68.4107 34.3741 68.5224C34.4888 68.6341 34.5462 68.8016 34.5462 69.0249V70.7263C34.5462 70.9731 34.4888 71.1538 34.3741 71.2684C34.2594 71.383 34.1103 71.4403 33.9268 71.4403H32.7483L32.7569 78.8805C32.7569 79.1039 32.6939 79.2728 32.5677 79.3874C32.4415 79.502 32.2666 79.5593 32.043 79.5593H30.0989C29.6573 79.5593 29.4365 79.3331 29.4365 78.8805L29.4279 71.4403H28.5419C28.1003 71.4403 27.8795 71.2023 27.8795 70.7263V69.0249C27.8795 68.5782 28.1003 68.3549 28.5419 68.3549H29.4279L29.4365 66.6183ZM37.2043 68.5224C37.2043 67.9758 37.3189 67.4616 37.5483 66.9797C37.7777 66.4978 38.0845 66.0761 38.4688 65.7147C38.853 65.3532 39.2946 65.0682 39.7935 64.8596C40.2924 64.6509 40.8143 64.5466 41.3591 64.5466H41.5311C41.7261 64.5466 41.8767 64.6069 41.9827 64.7273C42.0888 64.8478 42.1419 65.0138 42.1419 65.2254V66.9092C42.1419 67.1266 42.086 67.3073 41.9741 67.4513C41.8623 67.5953 41.7146 67.6673 41.5311 67.6673H41.3591C41.2387 67.6673 41.124 67.6893 41.015 67.7334C40.906 67.7775 40.8086 67.8377 40.7225 67.9141C40.6365 67.9905 40.5677 68.0802 40.5161 68.183C40.4645 68.2858 40.4387 68.399 40.4387 68.5224V69.5362H41.7892C41.9842 69.5362 42.1347 69.5905 42.2408 69.6993C42.3469 69.808 42.4 69.9799 42.4 70.215V71.8282C42.4 72.0809 42.3469 72.266 42.2408 72.3836C42.1347 72.5011 41.9842 72.5599 41.7892 72.5599H40.4387V78.8805C40.4387 79.1039 40.3655 79.2728 40.2193 79.3874C40.0731 79.502 39.9139 79.5593 39.7419 79.5593H37.8838C37.6774 79.5593 37.5125 79.4932 37.3892 79.361C37.2659 79.2287 37.2043 79.0686 37.2043 78.8805V72.5599H36.3182C36.1175 72.5599 35.9555 72.5011 35.8322 72.3836C35.7089 72.266 35.6473 72.0809 35.6473 71.8282V70.215C35.6473 69.9799 35.7089 69.808 35.8322 69.6993C35.9555 69.5905 36.1175 69.5362 36.3182 69.5362H37.2043V68.5224ZM43.286 73.9703C43.286 73.4297 43.3534 72.9095 43.4881 72.41C43.6229 71.9105 43.8121 71.4477 44.0559 71.0216C44.2996 70.5955 44.5921 70.2076 44.9333 69.8579C45.2745 69.5083 45.6544 69.21 46.0731 68.9632C46.4917 68.7163 46.9433 68.5253 47.4279 68.3902C47.9125 68.255 48.4186 68.1874 48.9462 68.1874C49.7261 68.1874 50.4587 68.3358 51.144 68.6326C51.8293 68.9294 52.4258 69.3378 52.9333 69.8579C53.4408 70.378 53.8422 70.9892 54.1376 71.6915C54.4329 72.3938 54.5806 73.1534 54.5806 73.9703C54.5806 74.511 54.5132 75.0297 54.3784 75.5263C54.2437 76.0229 54.0544 76.4857 53.8107 76.9147C53.567 77.3437 53.2745 77.7331 52.9333 78.0827C52.5921 78.4324 52.2121 78.7321 51.7935 78.9819C51.3749 79.2317 50.9261 79.4242 50.4473 79.5593C49.9684 79.6945 49.4681 79.7621 48.9462 79.7621C48.4186 79.7621 47.9125 79.6945 47.4279 79.5593C46.9433 79.4242 46.4917 79.2317 46.0731 78.9819C45.6544 78.7321 45.2745 78.4324 44.9333 78.0827C44.5921 77.7331 44.2996 77.3437 44.0559 76.9147C43.8121 76.4857 43.6229 76.0229 43.4881 75.5263C43.3534 75.0297 43.286 74.511 43.286 73.9703ZM46.4258 73.9703C46.4258 74.3582 46.4845 74.7211 46.6021 75.059C46.7197 75.397 46.886 75.6893 47.101 75.9362C47.3161 76.183 47.577 76.3784 47.8838 76.5224C48.1906 76.6664 48.5361 76.7384 48.9204 76.7384C49.2931 76.7384 49.6301 76.6664 49.9311 76.5224C50.2322 76.3784 50.4874 76.183 50.6967 75.9362C50.906 75.6893 51.0666 75.397 51.1784 75.059C51.2903 74.7211 51.3462 74.3582 51.3462 73.9703C51.3462 73.5942 51.2903 73.2357 51.1784 72.8949C51.0666 72.554 50.906 72.2543 50.6967 71.9957C50.4874 71.7371 50.2322 71.5329 49.9311 71.383C49.6301 71.2331 49.2931 71.1582 48.9204 71.1582C48.5361 71.1582 48.1906 71.2331 47.8838 71.383C47.577 71.5329 47.3161 71.7371 47.101 71.9957C46.886 72.2543 46.7197 72.554 46.6021 72.8949C46.4845 73.2357 46.4258 73.5942 46.4258 73.9703ZM55.9569 73.9703C55.9569 73.4297 56.0243 72.9095 56.1591 72.41C56.2939 71.9105 56.4831 71.4477 56.7268 71.0216C56.9706 70.5955 57.263 70.2076 57.6043 69.8579C57.9455 69.5083 58.3254 69.21 58.744 68.9632C59.1627 68.7163 59.6143 68.5253 60.0989 68.3902C60.5835 68.255 61.0896 68.1874 61.6172 68.1874C62.3971 68.1874 63.1297 68.3358 63.815 68.6326C64.5003 68.9294 65.0967 69.3378 65.6043 69.8579C66.1118 70.378 66.5132 70.9892 66.8086 71.6915C67.1039 72.3938 67.2516 73.1534 67.2516 73.9703C67.2516 74.511 67.1842 75.0297 67.0494 75.5263C66.9146 76.0229 66.7254 76.4857 66.4817 76.9147C66.2379 77.3437 65.9455 77.7331 65.6043 78.0827C65.263 78.4324 64.8831 78.7321 64.4645 78.9819C64.0458 79.2317 63.5971 79.4242 63.1182 79.5593C62.6394 79.6945 62.139 79.7621 61.6172 79.7621C61.0896 79.7621 60.5835 79.6945 60.0989 79.5593C59.6143 79.4242 59.1627 79.2317 58.744 78.9819C58.3254 78.7321 57.9455 78.4324 57.6043 78.0827C57.263 77.7331 56.9706 77.3437 56.7268 76.9147C56.4831 76.4857 56.2939 76.0229 56.1591 75.5263C56.0243 75.0297 55.9569 74.511 55.9569 73.9703ZM59.0967 73.9703C59.0967 74.3582 59.1555 74.7211 59.2731 75.059C59.3906 75.397 59.5569 75.6893 59.772 75.9362C59.9871 76.183 60.248 76.3784 60.5548 76.5224C60.8616 76.6664 61.2071 76.7384 61.5914 76.7384C61.9641 76.7384 62.301 76.6664 62.6021 76.5224C62.9032 76.3784 63.1584 76.183 63.3677 75.9362C63.577 75.6893 63.7376 75.397 63.8494 75.059C63.9612 74.7211 64.0172 74.3582 64.0172 73.9703C64.0172 73.5942 63.9612 73.2357 63.8494 72.8949C63.7376 72.554 63.577 72.2543 63.3677 71.9957C63.1584 71.7371 62.9032 71.5329 62.6021 71.383C62.301 71.2331 61.9641 71.1582 61.5914 71.1582C61.2071 71.1582 60.8616 71.2331 60.5548 71.383C60.248 71.5329 59.9871 71.7371 59.772 71.9957C59.5569 72.2543 59.3906 72.554 59.2731 72.8949C59.1555 73.2357 59.0967 73.5942 59.0967 73.9703ZM76.7483 78.4574C76.5935 78.6161 76.4172 78.7733 76.2193 78.929C76.0215 79.0848 75.8064 79.2243 75.5742 79.3478C75.3419 79.4712 75.0924 79.5711 74.8258 79.6475C74.5591 79.7239 74.2767 79.7621 73.9784 79.7621C73.1985 79.7621 72.4802 79.6122 71.8236 79.3125C71.167 79.0128 70.6021 78.6028 70.129 78.0827C69.6559 77.5626 69.286 76.95 69.0193 76.2447C68.7526 75.5395 68.6193 74.7814 68.6193 73.9703C68.6193 73.1534 68.7526 72.3938 69.0193 71.6915C69.286 70.9892 69.6559 70.378 70.129 69.8579C70.6021 69.3378 71.167 68.9294 71.8236 68.6326C72.4802 68.3358 73.1985 68.1874 73.9784 68.1874C74.2939 68.1874 74.582 68.2153 74.843 68.2712C75.1039 68.327 75.3419 68.4078 75.5569 68.5136C75.772 68.6194 75.9698 68.7457 76.1505 68.8926C76.3311 69.0396 76.5017 69.2012 76.6623 69.3775V65.7015C76.6623 65.5134 76.7182 65.3547 76.8301 65.2254C76.9419 65.0961 77.1096 65.0315 77.3333 65.0315H79.2688C79.3433 65.0315 79.4222 65.0476 79.5053 65.08C79.5885 65.1123 79.6645 65.1578 79.7333 65.2166C79.8021 65.2754 79.858 65.3459 79.901 65.4282C79.944 65.5105 79.9655 65.6015 79.9655 65.7015V78.8805C79.9655 79.3331 79.7333 79.5593 79.2688 79.5593H77.5827C77.4681 79.5593 77.3792 79.5446 77.3161 79.5152C77.253 79.4859 77.2 79.4433 77.1569 79.3874C77.1139 79.3316 77.0752 79.2611 77.0408 79.1759C77.0064 79.0906 76.9634 78.9922 76.9118 78.8805L76.7483 78.4574ZM71.7161 73.9703C71.7161 74.3582 71.7749 74.7211 71.8924 75.059C72.01 75.397 72.1777 75.6893 72.3957 75.9362C72.6136 76.183 72.8759 76.3784 73.1827 76.5224C73.4896 76.6664 73.8293 76.7384 74.2021 76.7384C74.5691 76.7384 74.9146 76.6708 75.2387 76.5356C75.5627 76.4005 75.8451 76.2139 76.086 75.9758C76.3268 75.7378 76.5204 75.4572 76.6666 75.134C76.8129 74.8107 76.8946 74.464 76.9118 74.0938V73.9703C76.9118 73.5942 76.843 73.2357 76.7053 72.8949C76.5677 72.554 76.377 72.2543 76.1333 71.9957C75.8896 71.7371 75.6028 71.5329 75.2731 71.383C74.9433 71.2331 74.5863 71.1582 74.2021 71.1582C73.8293 71.1582 73.4896 71.2331 73.1827 71.383C72.8759 71.5329 72.6136 71.7371 72.3957 71.9957C72.1777 72.2543 72.01 72.554 71.8924 72.8949C71.7749 73.2357 71.7161 73.5942 71.7161 73.9703Z" fill="#122F32"/>
</svg>
